<svg id="visual" viewBox="0 0 540 960" width="540" height="960" xmlns="http://www.w3.org/2000/svg" xmlns:xlink="http://www.w3.org/1999/xlink" version="1.1"><rect x="0" y="0" width="540" height="960" fill="#002233"></rect><path d="M0 803L7.5 797.7C15 792.3 30 781.7 45 770.2C60 758.7 75 746.3 90 747.2C105 748 120 762 135 768.2C150 774.3 165 772.7 180 767C195 761.3 210 751.7 225 750C240 748.3 255 754.7 270 763C285 771.3 300 781.7 315 764.2C330 746.7 345 701.3 360 696.3C375 691.3 390 726.7 405 741C420 755.3 435 748.7 450 736.2C465 723.7 480 705.3 495 686.3C510 667.3 525 647.7 532.5 637.8L540 628L540 961L532.5 961C525 961 510 961 495 961C480 961 465 961 450 961C435 961 420 961 405 961C390 961 375 961 360 961C345 961 330 961 315 961C300 961 285 961 270 961C255 961 240 961 225 961C210 961 195 961 180 961C165 961 150 961 135 961C120 961 105 961 90 961C75 961 60 961 45 961C30 961 15 961 7.5 961L0 961Z" fill="#0066FF" stroke-linecap="round" stroke-linejoin="miter"></path></svg>